<svg width="17" height="17" viewBox="0 0 17 17" fill="none" xmlns="http://www.w3.org/2000/svg">
<g clip-path="url(#clip0_1_367)">
<path fill-rule="evenodd" clip-rule="evenodd" d="M0.5 8.5C0.5 6.37827 1.34285 4.34344 2.84315 2.84315C4.34344 1.34285 6.37827 0.5 8.5 0.5C10.6217 0.5 12.6566 1.34285 14.1569 2.84315C15.6571 4.34344 16.5 6.37827 16.5 8.5C16.5 10.6217 15.6571 12.6566 14.1569 14.1569C12.6566 15.6571 10.6217 16.5 8.5 16.5C6.37827 16.5 4.34344 15.6571 2.84315 14.1569C1.34285 12.6566 0.5 10.6217 0.5 8.5ZM8.04347 11.924L12.6493 6.16613L11.8173 5.50053L7.88987 10.4083L5.108 8.0904L4.42533 8.9096L8.04347 11.924Z" fill="black"/>
</g>
<defs>
<clipPath id="clip0_1_367">
<rect width="16" height="16" fill="white" transform="translate(0.5 0.5)"/>
</clipPath>
</defs>
</svg>
